# xmcd
#
# Track frame offsets: 
#        150
#        16165
#        28618
#        46018
#        61600
#        80023
#        99658
#        118000
#        133684
#        148933
#        165931
#        184317
#        205479
#        215775
#        231273
#        244548
#
# Disc length: 3491 seconds
#
# Revision: 0
# Processed by: cddbd v1.5.2PL0 Copyright (c) Steve Scherf et al.
# Submitted via: ExactAudioCopyFreeDBPlugin 1.0
#
DISCID=de0da110
DTITLE=ไพรวัลย์ ลูกเพชร - ไอ้หนุ่มตังเก [RE.03]
DYEAR=2006
DGENRE=Country
TTITLE0=ไอ้หนุ่มตังเก
TTITLE1=สำรวยลืมคำ
TTITLE2=หนาวใจชายแดน
TTITLE3=อ่างทองระทม
TTITLE4=ไพรวัลย์หาคู่
TTITLE5=คอยนาง
TTITLE6=สาวเรณู
TTITLE7=ลำพู
TTITLE8=กอดรูปจูบหมอน
TTITLE9=คนขี้ลืม
TTITLE10=แม่บินหลาดง
TTITLE11=ธรรมชาติแกล้ง
TTITLE12=เสน่ห์สาวอีสาน
TTITLE13=เสียงจากไพรวัลย์
TTITLE14=ลิเกไพรวัลย์
TTITLE15=ใต้ถุนธรณี
EXTD=
EXTT0=
EXTT1=
EXTT2=
EXTT3=
EXTT4=
EXTT5=
EXTT6=
EXTT7=
EXTT8=
EXTT9=
EXTT10=
EXTT11=
EXTT12=
EXTT13=
EXTT14=
EXTT15=
PLAYORDER=
